<?xml version="1.0" encoding="UTF-8" standalone="no"?>
<!DOCTYPE svg PUBLIC "-//W3C//DTD SVG 1.1//EN"
 "http://www.w3.org/Graphics/SVG/1.1/DTD/svg11.dtd">
<!-- Generated by graphviz version 2.40.1 (20161225.0304)
 -->
<!-- Title: G Pages: 1 -->
<svg width="620pt" height="690pt"
 viewBox="0.00 0.00 620.01 689.92" xmlns="http://www.w3.org/2000/svg" xmlns:xlink="http://www.w3.org/1999/xlink">
<g id="graph0" class="graph" transform="scale(1 1) rotate(0) translate(4 685.9209)">
<title>G</title>
<polygon fill="#252525" stroke="transparent" points="-4,4 -4,-685.9209 616.0071,-685.9209 616.0071,4 -4,4"/>
<!-- NUEVE
(0000380265) -->
<g id="node1" class="node">
<title>NUEVE
(0000380265)</title>
<ellipse fill="none" stroke="#8caff3" cx="76.2965" cy="-565.3107" rx="65.5227" ry="26.7407"/>
<text text-anchor="middle" x="76.2965" y="-569.1107" font-family="Times,serif" font-size="14.00" fill="#dddddd">NUEVE</text>
<text text-anchor="middle" x="76.2965" y="-554.1107" font-family="Times,serif" font-size="14.00" fill="#dddddd">(0000380265)</text>
</g>
<!-- DOCE
(0000382568) -->
<g id="node2" class="node">
<title>DOCE
(0000382568)</title>
<ellipse fill="none" stroke="#8caff3" cx="76.2965" cy="-475.5706" rx="65.5227" ry="26.7407"/>
<text text-anchor="middle" x="76.2965" y="-479.3706" font-family="Times,serif" font-size="14.00" fill="#dddddd">DOCE</text>
<text text-anchor="middle" x="76.2965" y="-464.3706" font-family="Times,serif" font-size="14.00" fill="#dddddd">(0000382568)</text>
</g>
<!-- NUEVE
(0000380265)&#45;&gt;DOCE
(0000382568) -->
<g id="edge1" class="edge">
<title>NUEVE
(0000380265)&#45;&gt;DOCE
(0000382568)</title>
<path fill="none" stroke="#4bc9c8" d="M76.2965,-538.3858C76.2965,-530.3108 76.2965,-521.3075 76.2965,-512.6966"/>
<polygon fill="#4bc9c8" stroke="#4bc9c8" points="79.7966,-512.4766 76.2965,-502.4766 72.7966,-512.4767 79.7966,-512.4766"/>
</g>
<!-- ONCE
(0000382569) -->
<g id="node17" class="node">
<title>ONCE
(0000382569)</title>
<ellipse fill="none" stroke="#8caff3" cx="226.2965" cy="-475.5706" rx="65.5227" ry="26.7407"/>
<text text-anchor="middle" x="226.2965" y="-479.3706" font-family="Times,serif" font-size="14.00" fill="#dddddd">ONCE</text>
<text text-anchor="middle" x="226.2965" y="-464.3706" font-family="Times,serif" font-size="14.00" fill="#dddddd">(0000382569)</text>
</g>
<!-- NUEVE
(0000380265)&#45;&gt;ONCE
(0000382569) -->
<g id="edge28" class="edge">
<title>NUEVE
(0000380265)&#45;&gt;ONCE
(0000382569)</title>
<path fill="none" stroke="#4bc9c8" d="M113.7609,-542.897C133.9717,-530.8055 159.0823,-515.7827 180.4525,-502.9976"/>
<polygon fill="#4bc9c8" stroke="#4bc9c8" points="182.2654,-505.9916 189.0499,-497.854 178.6715,-499.9846 182.2654,-505.9916"/>
</g>
<!-- CATORCE
(0000384348) -->
<g id="node5" class="node">
<title>CATORCE
(0000384348)</title>
<ellipse fill="none" stroke="#8caff3" cx="76.2965" cy="-385.8305" rx="65.5227" ry="26.7407"/>
<text text-anchor="middle" x="76.2965" y="-389.6305" font-family="Times,serif" font-size="14.00" fill="#dddddd">CATORCE</text>
<text text-anchor="middle" x="76.2965" y="-374.6305" font-family="Times,serif" font-size="14.00" fill="#dddddd">(0000384348)</text>
</g>
<!-- DOCE
(0000382568)&#45;&gt;CATORCE
(0000384348) -->
<g id="edge40" class="edge">
<title>DOCE
(0000382568)&#45;&gt;CATORCE
(0000384348)</title>
<path fill="none" stroke="#4bc9c8" d="M76.2965,-448.6456C76.2965,-440.5707 76.2965,-431.5674 76.2965,-422.9565"/>
<polygon fill="#4bc9c8" stroke="#4bc9c8" points="79.7966,-422.7365 76.2965,-412.7365 72.7966,-422.7365 79.7966,-422.7365"/>
</g>
<!-- TRECE
(0000386008) -->
<g id="node21" class="node">
<title>TRECE
(0000386008)</title>
<ellipse fill="none" stroke="#8caff3" cx="226.2965" cy="-385.8305" rx="65.5227" ry="26.7407"/>
<text text-anchor="middle" x="226.2965" y="-389.6305" font-family="Times,serif" font-size="14.00" fill="#dddddd">TRECE</text>
<text text-anchor="middle" x="226.2965" y="-374.6305" font-family="Times,serif" font-size="14.00" fill="#dddddd">(0000386008)</text>
</g>
<!-- DOCE
(0000382568)&#45;&gt;TRECE
(0000386008) -->
<g id="edge25" class="edge">
<title>DOCE
(0000382568)&#45;&gt;TRECE
(0000386008)</title>
<path fill="none" stroke="#4bc9c8" d="M113.7609,-453.1569C133.9717,-441.0654 159.0823,-426.0425 180.4525,-413.2574"/>
<polygon fill="#4bc9c8" stroke="#4bc9c8" points="182.2654,-416.2515 189.0499,-408.1139 178.6715,-410.2444 182.2654,-416.2515"/>
</g>
<!-- CATORCE 2
(0000375536) -->
<g id="node3" class="node">
<title>CATORCE 2
(0000375536)</title>
<ellipse fill="none" stroke="#8caff3" cx="378.2965" cy="-385.8305" rx="65.5227" ry="26.7407"/>
<text text-anchor="middle" x="378.2965" y="-389.6305" font-family="Times,serif" font-size="14.00" fill="#dddddd">CATORCE 2</text>
<text text-anchor="middle" x="378.2965" y="-374.6305" font-family="Times,serif" font-size="14.00" fill="#dddddd">(0000375536)</text>
</g>
<!-- QUINCE 2
(0000373161) -->
<g id="node4" class="node">
<title>QUINCE 2
(0000373161)</title>
<ellipse fill="none" stroke="#8caff3" cx="379.2965" cy="-296.0904" rx="65.5227" ry="26.7407"/>
<text text-anchor="middle" x="379.2965" y="-299.8904" font-family="Times,serif" font-size="14.00" fill="#dddddd">QUINCE 2</text>
<text text-anchor="middle" x="379.2965" y="-284.8904" font-family="Times,serif" font-size="14.00" fill="#dddddd">(0000373161)</text>
</g>
<!-- CATORCE 2
(0000375536)&#45;&gt;QUINCE 2
(0000373161) -->
<g id="edge2" class="edge">
<title>CATORCE 2
(0000375536)&#45;&gt;QUINCE 2
(0000373161)</title>
<path fill="none" stroke="#4bc9c8" d="M378.5965,-358.9055C378.6865,-350.8306 378.7868,-341.8273 378.8828,-333.2164"/>
<polygon fill="#4bc9c8" stroke="#4bc9c8" points="382.3849,-333.0348 378.9966,-322.9964 375.3853,-332.9567 382.3849,-333.0348"/>
</g>
<!-- DIECISEIS 2
(0000373634) -->
<g id="node9" class="node">
<title>DIECISEIS 2
(0000373634)</title>
<ellipse fill="none" stroke="#8caff3" cx="529.2965" cy="-296.0904" rx="65.5227" ry="26.7407"/>
<text text-anchor="middle" x="529.2965" y="-299.8904" font-family="Times,serif" font-size="14.00" fill="#dddddd">DIECISEIS 2</text>
<text text-anchor="middle" x="529.2965" y="-284.8904" font-family="Times,serif" font-size="14.00" fill="#dddddd">(0000373634)</text>
</g>
<!-- CATORCE 2
(0000375536)&#45;&gt;DIECISEIS 2
(0000373634) -->
<g id="edge41" class="edge">
<title>CATORCE 2
(0000375536)&#45;&gt;DIECISEIS 2
(0000373634)</title>
<path fill="none" stroke="#4bc9c8" d="M415.6223,-363.6476C436.0402,-351.5131 461.5129,-336.3745 483.167,-323.5054"/>
<polygon fill="#4bc9c8" stroke="#4bc9c8" points="485.0684,-326.4469 491.8767,-318.3292 481.4921,-320.4294 485.0684,-326.4469"/>
</g>
<!-- DIECIOCHO 2
(0000373154) -->
<g id="node10" class="node">
<title>DIECIOCHO 2
(0000373154)</title>
<ellipse fill="none" stroke="#8caff3" cx="381.2965" cy="-206.3503" rx="71.3357" ry="26.7407"/>
<text text-anchor="middle" x="381.2965" y="-210.1503" font-family="Times,serif" font-size="14.00" fill="#dddddd">DIECIOCHO 2</text>
<text text-anchor="middle" x="381.2965" y="-195.1503" font-family="Times,serif" font-size="14.00" fill="#dddddd">(0000373154)</text>
</g>
<!-- QUINCE 2
(0000373161)&#45;&gt;DIECIOCHO 2
(0000373154) -->
<g id="edge39" class="edge">
<title>QUINCE 2
(0000373161)&#45;&gt;DIECIOCHO 2
(0000373154)</title>
<path fill="none" stroke="#4bc9c8" d="M379.8965,-269.1654C380.0765,-261.0905 380.2771,-252.0872 380.4691,-243.4763"/>
<polygon fill="#4bc9c8" stroke="#4bc9c8" points="383.973,-243.3318 380.6968,-233.2563 376.9748,-243.1758 383.973,-243.3318"/>
</g>
<!-- DIECISIETE 2
(0000376331) -->
<g id="node11" class="node">
<title>DIECISIETE 2
(0000376331)</title>
<ellipse fill="none" stroke="#8caff3" cx="541.2965" cy="-206.3503" rx="70.922" ry="26.7407"/>
<text text-anchor="middle" x="541.2965" y="-210.1503" font-family="Times,serif" font-size="14.00" fill="#dddddd">DIECISIETE 2</text>
<text text-anchor="middle" x="541.2965" y="-195.1503" font-family="Times,serif" font-size="14.00" fill="#dddddd">(0000376331)</text>
</g>
<!-- QUINCE 2
(0000373161)&#45;&gt;DIECISIETE 2
(0000376331) -->
<g id="edge6" class="edge">
<title>QUINCE 2
(0000373161)&#45;&gt;DIECISIETE 2
(0000376331)</title>
<path fill="none" stroke="#4bc9c8" d="M418.5121,-274.3668C440.6821,-262.0858 468.6029,-246.619 492.2157,-233.5386"/>
<polygon fill="#4bc9c8" stroke="#4bc9c8" points="493.9821,-236.5613 501.0336,-228.654 490.5901,-230.4381 493.9821,-236.5613"/>
</g>
<!-- QUINCE
(0000383444) -->
<g id="node6" class="node">
<title>QUINCE
(0000383444)</title>
<ellipse fill="none" stroke="#8caff3" cx="75.2965" cy="-296.0904" rx="65.5227" ry="26.7407"/>
<text text-anchor="middle" x="75.2965" y="-299.8904" font-family="Times,serif" font-size="14.00" fill="#dddddd">QUINCE</text>
<text text-anchor="middle" x="75.2965" y="-284.8904" font-family="Times,serif" font-size="14.00" fill="#dddddd">(0000383444)</text>
</g>
<!-- CATORCE
(0000384348)&#45;&gt;QUINCE
(0000383444) -->
<g id="edge3" class="edge">
<title>CATORCE
(0000384348)&#45;&gt;QUINCE
(0000383444)</title>
<path fill="none" stroke="#4bc9c8" d="M75.9964,-358.9055C75.9065,-350.8306 75.8061,-341.8273 75.7102,-333.2164"/>
<polygon fill="#4bc9c8" stroke="#4bc9c8" points="79.2076,-332.9567 75.5963,-322.9964 72.208,-333.0348 79.2076,-332.9567"/>
</g>
<!-- DIECISEIS
(0000383534) -->
<g id="node7" class="node">
<title>DIECISEIS
(0000383534)</title>
<ellipse fill="none" stroke="#8caff3" cx="225.2965" cy="-296.0904" rx="65.5227" ry="26.7407"/>
<text text-anchor="middle" x="225.2965" y="-299.8904" font-family="Times,serif" font-size="14.00" fill="#dddddd">DIECISEIS</text>
<text text-anchor="middle" x="225.2965" y="-284.8904" font-family="Times,serif" font-size="14.00" fill="#dddddd">(0000383534)</text>
</g>
<!-- CATORCE
(0000384348)&#45;&gt;DIECISEIS
(0000383534) -->
<g id="edge7" class="edge">
<title>CATORCE
(0000384348)&#45;&gt;DIECISEIS
(0000383534)</title>
<path fill="none" stroke="#4bc9c8" d="M113.5111,-363.4168C133.498,-351.379 158.3088,-336.4359 179.4749,-323.6879"/>
<polygon fill="#4bc9c8" stroke="#4bc9c8" points="181.5377,-326.5314 188.2983,-318.3738 177.9262,-320.535 181.5377,-326.5314"/>
</g>
<!-- DIECIOCHO
(0000383465) -->
<g id="node8" class="node">
<title>DIECIOCHO
(0000383465)</title>
<ellipse fill="none" stroke="#8caff3" cx="73.2965" cy="-206.3503" rx="65.5227" ry="26.7407"/>
<text text-anchor="middle" x="73.2965" y="-210.1503" font-family="Times,serif" font-size="14.00" fill="#dddddd">DIECIOCHO</text>
<text text-anchor="middle" x="73.2965" y="-195.1503" font-family="Times,serif" font-size="14.00" fill="#dddddd">(0000383465)</text>
</g>
<!-- QUINCE
(0000383444)&#45;&gt;DIECIOCHO
(0000383465) -->
<g id="edge26" class="edge">
<title>QUINCE
(0000383444)&#45;&gt;DIECIOCHO
(0000383465)</title>
<path fill="none" stroke="#4bc9c8" d="M74.6964,-269.1654C74.5164,-261.0905 74.3158,-252.0872 74.1239,-243.4763"/>
<polygon fill="#4bc9c8" stroke="#4bc9c8" points="77.6181,-243.1758 73.8961,-233.2563 70.6199,-243.3318 77.6181,-243.1758"/>
</g>
<!-- DIECISIETE
(0000383776) -->
<g id="node22" class="node">
<title>DIECISIETE
(0000383776)</title>
<ellipse fill="none" stroke="#8caff3" cx="223.2965" cy="-206.3503" rx="65.5227" ry="26.7407"/>
<text text-anchor="middle" x="223.2965" y="-210.1503" font-family="Times,serif" font-size="14.00" fill="#dddddd">DIECISIETE</text>
<text text-anchor="middle" x="223.2965" y="-195.1503" font-family="Times,serif" font-size="14.00" fill="#dddddd">(0000383776)</text>
</g>
<!-- QUINCE
(0000383444)&#45;&gt;DIECISIETE
(0000383776) -->
<g id="edge33" class="edge">
<title>QUINCE
(0000383444)&#45;&gt;DIECISIETE
(0000383776)</title>
<path fill="none" stroke="#4bc9c8" d="M112.2613,-273.6767C132.1141,-261.6389 156.7584,-246.6958 177.7824,-233.9478"/>
<polygon fill="#4bc9c8" stroke="#4bc9c8" points="179.8104,-236.8114 186.5466,-228.6337 176.181,-230.8257 179.8104,-236.8114"/>
</g>
<!-- DIECISEIS
(0000383534)&#45;&gt;DIECIOCHO
(0000383465) -->
<g id="edge4" class="edge">
<title>DIECISEIS
(0000383534)&#45;&gt;DIECIOCHO
(0000383465)</title>
<path fill="none" stroke="#4bc9c8" d="M187.7234,-273.9074C167.1703,-261.773 141.5289,-246.6344 119.7314,-233.7653"/>
<polygon fill="#4bc9c8" stroke="#4bc9c8" points="121.3547,-230.6592 110.9641,-228.5891 117.7959,-236.6871 121.3547,-230.6592"/>
</g>
<!-- DIECISEIS
(0000383534)&#45;&gt;DIECISIETE
(0000383776) -->
<g id="edge23" class="edge">
<title>DIECISEIS
(0000383534)&#45;&gt;DIECISIETE
(0000383776)</title>
<path fill="none" stroke="#4bc9c8" d="M224.6964,-269.1654C224.5164,-261.0905 224.3158,-252.0872 224.1239,-243.4763"/>
<polygon fill="#4bc9c8" stroke="#4bc9c8" points="227.6181,-243.1758 223.8961,-233.2563 220.6199,-243.3318 227.6181,-243.1758"/>
</g>
<!-- DIECINUEVE
(0000384297) -->
<g id="node13" class="node">
<title>DIECINUEVE
(0000384297)</title>
<ellipse fill="none" stroke="#8caff3" cx="69.2965" cy="-116.6102" rx="69.0935" ry="26.7407"/>
<text text-anchor="middle" x="69.2965" y="-120.4102" font-family="Times,serif" font-size="14.00" fill="#dddddd">DIECINUEVE</text>
<text text-anchor="middle" x="69.2965" y="-105.4102" font-family="Times,serif" font-size="14.00" fill="#dddddd">(0000384297)</text>
</g>
<!-- DIECIOCHO
(0000383465)&#45;&gt;DIECINUEVE
(0000384297) -->
<g id="edge48" class="edge">
<title>DIECIOCHO
(0000383465)&#45;&gt;DIECINUEVE
(0000384297)</title>
<path fill="none" stroke="#4bc9c8" d="M72.0963,-179.4253C71.7364,-171.3504 71.3351,-162.3471 70.9513,-153.7362"/>
<polygon fill="#4bc9c8" stroke="#4bc9c8" points="74.4377,-153.3504 70.4957,-143.5162 67.4446,-153.6621 74.4377,-153.3504"/>
</g>
<!-- VEINTE
(0000383535) -->
<g id="node26" class="node">
<title>VEINTE
(0000383535)</title>
<ellipse fill="none" stroke="#8caff3" cx="222.2965" cy="-116.6102" rx="65.5227" ry="26.7407"/>
<text text-anchor="middle" x="222.2965" y="-120.4102" font-family="Times,serif" font-size="14.00" fill="#dddddd">VEINTE</text>
<text text-anchor="middle" x="222.2965" y="-105.4102" font-family="Times,serif" font-size="14.00" fill="#dddddd">(0000383535)</text>
</g>
<!-- DIECIOCHO
(0000383465)&#45;&gt;VEINTE
(0000383535) -->
<g id="edge34" class="edge">
<title>DIECIOCHO
(0000383465)&#45;&gt;VEINTE
(0000383535)</title>
<path fill="none" stroke="#4bc9c8" d="M110.5111,-183.9366C130.498,-171.8988 155.3088,-156.9557 176.4749,-144.2077"/>
<polygon fill="#4bc9c8" stroke="#4bc9c8" points="178.5377,-147.0511 185.2983,-138.8936 174.9262,-141.0547 178.5377,-147.0511"/>
</g>
<!-- DIECISEIS 2
(0000373634)&#45;&gt;DIECIOCHO 2
(0000373154) -->
<g id="edge5" class="edge">
<title>DIECISEIS 2
(0000373634)&#45;&gt;DIECIOCHO 2
(0000373154)</title>
<path fill="none" stroke="#4bc9c8" d="M492.3316,-273.6767C472.7785,-261.8206 448.5774,-247.1462 427.765,-234.5266"/>
<polygon fill="#4bc9c8" stroke="#4bc9c8" points="429.4418,-231.4502 419.0762,-229.2581 425.8124,-237.4358 429.4418,-231.4502"/>
</g>
<!-- DIECISEIS 2
(0000373634)&#45;&gt;DIECISIETE 2
(0000376331) -->
<g id="edge32" class="edge">
<title>DIECISEIS 2
(0000373634)&#45;&gt;DIECISIETE 2
(0000376331)</title>
<path fill="none" stroke="#4bc9c8" d="M532.8969,-269.1654C533.9885,-261.0017 535.207,-251.8892 536.3699,-243.1926"/>
<polygon fill="#4bc9c8" stroke="#4bc9c8" points="539.8422,-243.632 537.6986,-233.2563 532.904,-242.7041 539.8422,-243.632"/>
</g>
<!-- DIECINUEVE 2
(0000377376) -->
<g id="node15" class="node">
<title>DIECINUEVE 2
(0000377376)</title>
<ellipse fill="none" stroke="#8caff3" cx="383.2965" cy="-116.6102" rx="77.1494" ry="26.7407"/>
<text text-anchor="middle" x="383.2965" y="-120.4102" font-family="Times,serif" font-size="14.00" fill="#dddddd">DIECINUEVE 2</text>
<text text-anchor="middle" x="383.2965" y="-105.4102" font-family="Times,serif" font-size="14.00" fill="#dddddd">(0000377376)</text>
</g>
<!-- DIECIOCHO 2
(0000373154)&#45;&gt;DIECINUEVE 2
(0000377376) -->
<g id="edge11" class="edge">
<title>DIECIOCHO 2
(0000373154)&#45;&gt;DIECINUEVE 2
(0000377376)</title>
<path fill="none" stroke="#4bc9c8" d="M381.8965,-179.4253C382.0765,-171.3504 382.2771,-162.3471 382.4691,-153.7362"/>
<polygon fill="#4bc9c8" stroke="#4bc9c8" points="385.973,-153.5917 382.6968,-143.5162 378.9748,-153.4357 385.973,-153.5917"/>
</g>
<!-- VEINTE 2
(0000374561) -->
<g id="node23" class="node">
<title>VEINTE 2
(0000374561)</title>
<ellipse fill="none" stroke="#8caff3" cx="544.2965" cy="-116.6102" rx="65.5227" ry="26.7407"/>
<text text-anchor="middle" x="544.2965" y="-120.4102" font-family="Times,serif" font-size="14.00" fill="#dddddd">VEINTE 2</text>
<text text-anchor="middle" x="544.2965" y="-105.4102" font-family="Times,serif" font-size="14.00" fill="#dddddd">(0000374561)</text>
</g>
<!-- DIECIOCHO 2
(0000373154)&#45;&gt;VEINTE 2
(0000374561) -->
<g id="edge22" class="edge">
<title>DIECIOCHO 2
(0000373154)&#45;&gt;VEINTE 2
(0000374561)</title>
<path fill="none" stroke="#4bc9c8" d="M422.0078,-183.9366C444.4999,-171.5535 472.5764,-156.0959 496.1524,-143.1161"/>
<polygon fill="#4bc9c8" stroke="#4bc9c8" points="497.8746,-146.1633 504.9467,-138.2743 494.4985,-140.0312 497.8746,-146.1633"/>
</g>
<!-- DIECISIETE 2
(0000376331)&#45;&gt;DIECINUEVE 2
(0000377376) -->
<g id="edge35" class="edge">
<title>DIECISIETE 2
(0000376331)&#45;&gt;DIECINUEVE 2
(0000377376)</title>
<path fill="none" stroke="#4bc9c8" d="M501.834,-183.9366C480.8665,-172.0276 454.8927,-157.275 432.6074,-144.6176"/>
<polygon fill="#4bc9c8" stroke="#4bc9c8" points="434.0529,-141.4134 423.6289,-139.518 430.5957,-147.5002 434.0529,-141.4134"/>
</g>
<!-- DIECISIETE 2
(0000376331)&#45;&gt;VEINTE 2
(0000374561) -->
<g id="edge21" class="edge">
<title>DIECISIETE 2
(0000376331)&#45;&gt;VEINTE 2
(0000374561)</title>
<path fill="none" stroke="#4bc9c8" d="M542.1966,-179.4253C542.4665,-171.3504 542.7675,-162.3471 543.0553,-153.7362"/>
<polygon fill="#4bc9c8" stroke="#4bc9c8" points="546.5608,-153.6276 543.397,-143.5162 539.5647,-153.3936 546.5608,-153.6276"/>
</g>
<!-- CUATRO
(0000372935) -->
<g id="node12" class="node">
<title>CUATRO
(0000372935)</title>
<ellipse fill="none" stroke="#8caff3" cx="226.2965" cy="-655.0509" rx="65.5227" ry="26.7407"/>
<text text-anchor="middle" x="226.2965" y="-658.8509" font-family="Times,serif" font-size="14.00" fill="#dddddd">CUATRO</text>
<text text-anchor="middle" x="226.2965" y="-643.8509" font-family="Times,serif" font-size="14.00" fill="#dddddd">(0000372935)</text>
</g>
<!-- CUATRO
(0000372935)&#45;&gt;NUEVE
(0000380265) -->
<g id="edge8" class="edge">
<title>CUATRO
(0000372935)&#45;&gt;NUEVE
(0000380265)</title>
<path fill="none" stroke="#4bc9c8" d="M188.8321,-632.6371C168.6212,-620.5456 143.5106,-605.5228 122.1404,-592.7377"/>
<polygon fill="#4bc9c8" stroke="#4bc9c8" points="123.9214,-589.7247 113.543,-587.5941 120.3276,-595.7317 123.9214,-589.7247"/>
</g>
<!-- DIEZ 2
(0000373100) -->
<g id="node18" class="node">
<title>DIEZ 2
(0000373100)</title>
<ellipse fill="none" stroke="#8caff3" cx="376.2965" cy="-565.3107" rx="65.5227" ry="26.7407"/>
<text text-anchor="middle" x="376.2965" y="-569.1107" font-family="Times,serif" font-size="14.00" fill="#dddddd">DIEZ 2</text>
<text text-anchor="middle" x="376.2965" y="-554.1107" font-family="Times,serif" font-size="14.00" fill="#dddddd">(0000373100)</text>
</g>
<!-- CUATRO
(0000372935)&#45;&gt;DIEZ 2
(0000373100) -->
<g id="edge13" class="edge">
<title>CUATRO
(0000372935)&#45;&gt;DIEZ 2
(0000373100)</title>
<path fill="none" stroke="#4bc9c8" d="M263.7609,-632.6371C283.9717,-620.5456 309.0823,-605.5228 330.4525,-592.7377"/>
<polygon fill="#4bc9c8" stroke="#4bc9c8" points="332.2654,-595.7317 339.0499,-587.5941 328.6715,-589.7247 332.2654,-595.7317"/>
</g>
<!-- DIEZ
(0000380056) -->
<g id="node20" class="node">
<title>DIEZ
(0000380056)</title>
<ellipse fill="none" stroke="#8caff3" cx="226.2965" cy="-565.3107" rx="65.5227" ry="26.7407"/>
<text text-anchor="middle" x="226.2965" y="-569.1107" font-family="Times,serif" font-size="14.00" fill="#dddddd">DIEZ</text>
<text text-anchor="middle" x="226.2965" y="-554.1107" font-family="Times,serif" font-size="14.00" fill="#dddddd">(0000380056)</text>
</g>
<!-- CUATRO
(0000372935)&#45;&gt;DIEZ
(0000380056) -->
<g id="edge43" class="edge">
<title>CUATRO
(0000372935)&#45;&gt;DIEZ
(0000380056)</title>
<path fill="none" stroke="#4bc9c8" d="M226.2965,-628.1259C226.2965,-620.0509 226.2965,-611.0477 226.2965,-602.4368"/>
<polygon fill="#4bc9c8" stroke="#4bc9c8" points="229.7966,-602.2167 226.2965,-592.2167 222.7966,-602.2168 229.7966,-602.2167"/>
</g>
<!-- NUEVE 2
(0000375225) -->
<g id="node28" class="node">
<title>NUEVE 2
(0000375225)</title>
<ellipse fill="none" stroke="#8caff3" cx="526.2965" cy="-565.3107" rx="65.5227" ry="26.7407"/>
<text text-anchor="middle" x="526.2965" y="-569.1107" font-family="Times,serif" font-size="14.00" fill="#dddddd">NUEVE 2</text>
<text text-anchor="middle" x="526.2965" y="-554.1107" font-family="Times,serif" font-size="14.00" fill="#dddddd">(0000375225)</text>
</g>
<!-- CUATRO
(0000372935)&#45;&gt;NUEVE 2
(0000375225) -->
<g id="edge38" class="edge">
<title>CUATRO
(0000372935)&#45;&gt;NUEVE 2
(0000375225)</title>
<path fill="none" stroke="#4bc9c8" d="M274.8589,-636.788C283.6054,-633.7464 292.681,-630.7497 301.2965,-628.1808 366.9977,-608.5902 385.5952,-611.7714 451.2965,-592.1808 456.8158,-590.5351 462.5239,-588.7138 468.2133,-586.8177"/>
<polygon fill="#4bc9c8" stroke="#4bc9c8" points="469.3973,-590.1119 477.7341,-583.5736 467.1396,-583.486 469.3973,-590.1119"/>
</g>
<!-- VEINTIUNO
(0000384002) -->
<g id="node14" class="node">
<title>VEINTIUNO
(0000384002)</title>
<ellipse fill="none" stroke="#8caff3" cx="146.2965" cy="-26.8701" rx="65.5227" ry="26.7407"/>
<text text-anchor="middle" x="146.2965" y="-30.6701" font-family="Times,serif" font-size="14.00" fill="#dddddd">VEINTIUNO</text>
<text text-anchor="middle" x="146.2965" y="-15.6701" font-family="Times,serif" font-size="14.00" fill="#dddddd">(0000384002)</text>
</g>
<!-- DIECINUEVE
(0000384297)&#45;&gt;VEINTIUNO
(0000384002) -->
<g id="edge9" class="edge">
<title>DIECINUEVE
(0000384297)&#45;&gt;VEINTIUNO
(0000384002)</title>
<path fill="none" stroke="#4bc9c8" d="M91.5681,-90.6536C99.699,-81.1774 109.0119,-70.3236 117.6222,-60.2886"/>
<polygon fill="#4bc9c8" stroke="#4bc9c8" points="120.4852,-62.3268 124.3408,-52.4584 115.1728,-57.7685 120.4852,-62.3268"/>
</g>
<!-- VEITIUNO 2
(0000373092) -->
<g id="node16" class="node">
<title>VEITIUNO 2
(0000373092)</title>
<ellipse fill="none" stroke="#8caff3" cx="463.2965" cy="-26.8701" rx="65.5227" ry="26.7407"/>
<text text-anchor="middle" x="463.2965" y="-30.6701" font-family="Times,serif" font-size="14.00" fill="#dddddd">VEITIUNO 2</text>
<text text-anchor="middle" x="463.2965" y="-15.6701" font-family="Times,serif" font-size="14.00" fill="#dddddd">(0000373092)</text>
</g>
<!-- DIECINUEVE 2
(0000377376)&#45;&gt;VEITIUNO 2
(0000373092) -->
<g id="edge10" class="edge">
<title>DIECINUEVE 2
(0000377376)&#45;&gt;VEITIUNO 2
(0000373092)</title>
<path fill="none" stroke="#4bc9c8" d="M406.4358,-90.6536C415.0407,-81.0011 424.9198,-69.9192 434.0036,-59.7293"/>
<polygon fill="#4bc9c8" stroke="#4bc9c8" points="436.719,-61.9431 440.7608,-52.1495 431.4938,-57.285 436.719,-61.9431"/>
</g>
<!-- ONCE
(0000382569)&#45;&gt;CATORCE
(0000384348) -->
<g id="edge12" class="edge">
<title>ONCE
(0000382569)&#45;&gt;CATORCE
(0000384348)</title>
<path fill="none" stroke="#4bc9c8" d="M188.8321,-453.1569C168.6212,-441.0654 143.5106,-426.0425 122.1404,-413.2574"/>
<polygon fill="#4bc9c8" stroke="#4bc9c8" points="123.9214,-410.2444 113.543,-408.1139 120.3276,-416.2515 123.9214,-410.2444"/>
</g>
<!-- ONCE
(0000382569)&#45;&gt;TRECE
(0000386008) -->
<g id="edge24" class="edge">
<title>ONCE
(0000382569)&#45;&gt;TRECE
(0000386008)</title>
<path fill="none" stroke="#4bc9c8" d="M226.2965,-448.6456C226.2965,-440.5707 226.2965,-431.5674 226.2965,-422.9565"/>
<polygon fill="#4bc9c8" stroke="#4bc9c8" points="229.7966,-422.7365 226.2965,-412.7365 222.7966,-422.7365 229.7966,-422.7365"/>
</g>
<!-- ONCE 2
(0000373023) -->
<g id="node24" class="node">
<title>ONCE 2
(0000373023)</title>
<ellipse fill="none" stroke="#8caff3" cx="377.2965" cy="-475.5706" rx="65.5227" ry="26.7407"/>
<text text-anchor="middle" x="377.2965" y="-479.3706" font-family="Times,serif" font-size="14.00" fill="#dddddd">ONCE 2</text>
<text text-anchor="middle" x="377.2965" y="-464.3706" font-family="Times,serif" font-size="14.00" fill="#dddddd">(0000373023)</text>
</g>
<!-- DIEZ 2
(0000373100)&#45;&gt;ONCE 2
(0000373023) -->
<g id="edge36" class="edge">
<title>DIEZ 2
(0000373100)&#45;&gt;ONCE 2
(0000373023)</title>
<path fill="none" stroke="#4bc9c8" d="M376.5965,-538.3858C376.6865,-530.3108 376.7868,-521.3075 376.8828,-512.6966"/>
<polygon fill="#4bc9c8" stroke="#4bc9c8" points="380.3849,-512.515 376.9966,-502.4766 373.3853,-512.437 380.3849,-512.515"/>
</g>
<!-- DOCE 2
(0000373083) -->
<g id="node27" class="node">
<title>DOCE 2
(0000373083)</title>
<ellipse fill="none" stroke="#8caff3" cx="527.2965" cy="-475.5706" rx="65.5227" ry="26.7407"/>
<text text-anchor="middle" x="527.2965" y="-479.3706" font-family="Times,serif" font-size="14.00" fill="#dddddd">DOCE 2</text>
<text text-anchor="middle" x="527.2965" y="-464.3706" font-family="Times,serif" font-size="14.00" fill="#dddddd">(0000373083)</text>
</g>
<!-- DIEZ 2
(0000373100)&#45;&gt;DOCE 2
(0000373083) -->
<g id="edge30" class="edge">
<title>DIEZ 2
(0000373100)&#45;&gt;DOCE 2
(0000373083)</title>
<path fill="none" stroke="#4bc9c8" d="M413.6223,-543.1278C434.0402,-530.9933 459.5129,-515.8548 481.167,-502.9856"/>
<polygon fill="#4bc9c8" stroke="#4bc9c8" points="483.0684,-505.9271 489.8767,-497.8094 479.4921,-499.9096 483.0684,-505.9271"/>
</g>
<!-- CINCO
(0000372853) -->
<g id="node19" class="node">
<title>CINCO
(0000372853)</title>
<ellipse fill="none" stroke="#8caff3" cx="376.2965" cy="-655.0509" rx="65.5227" ry="26.7407"/>
<text text-anchor="middle" x="376.2965" y="-658.8509" font-family="Times,serif" font-size="14.00" fill="#dddddd">CINCO</text>
<text text-anchor="middle" x="376.2965" y="-643.8509" font-family="Times,serif" font-size="14.00" fill="#dddddd">(0000372853)</text>
</g>
<!-- CINCO
(0000372853)&#45;&gt;NUEVE
(0000380265) -->
<g id="edge18" class="edge">
<title>CINCO
(0000372853)&#45;&gt;NUEVE
(0000380265)</title>
<path fill="none" stroke="#4bc9c8" d="M327.7341,-636.788C318.9875,-633.7464 309.9119,-630.7497 301.2965,-628.1808 235.5952,-608.5902 216.9977,-611.7714 151.2965,-592.1808 145.7772,-590.5351 140.0691,-588.7138 134.3796,-586.8177"/>
<polygon fill="#4bc9c8" stroke="#4bc9c8" points="135.4533,-583.486 124.8589,-583.5736 133.1956,-590.1119 135.4533,-583.486"/>
</g>
<!-- CINCO
(0000372853)&#45;&gt;DIEZ 2
(0000373100) -->
<g id="edge42" class="edge">
<title>CINCO
(0000372853)&#45;&gt;DIEZ 2
(0000373100)</title>
<path fill="none" stroke="#4bc9c8" d="M376.2965,-628.1259C376.2965,-620.0509 376.2965,-611.0477 376.2965,-602.4368"/>
<polygon fill="#4bc9c8" stroke="#4bc9c8" points="379.7966,-602.2167 376.2965,-592.2167 372.7966,-602.2168 379.7966,-602.2167"/>
</g>
<!-- CINCO
(0000372853)&#45;&gt;DIEZ
(0000380056) -->
<g id="edge14" class="edge">
<title>CINCO
(0000372853)&#45;&gt;DIEZ
(0000380056)</title>
<path fill="none" stroke="#4bc9c8" d="M338.8321,-632.6371C318.6212,-620.5456 293.5106,-605.5228 272.1404,-592.7377"/>
<polygon fill="#4bc9c8" stroke="#4bc9c8" points="273.9214,-589.7247 263.543,-587.5941 270.3276,-595.7317 273.9214,-589.7247"/>
</g>
<!-- CINCO
(0000372853)&#45;&gt;NUEVE 2
(0000375225) -->
<g id="edge47" class="edge">
<title>CINCO
(0000372853)&#45;&gt;NUEVE 2
(0000375225)</title>
<path fill="none" stroke="#4bc9c8" d="M413.7609,-632.6371C433.9717,-620.5456 459.0823,-605.5228 480.4525,-592.7377"/>
<polygon fill="#4bc9c8" stroke="#4bc9c8" points="482.2654,-595.7317 489.0499,-587.5941 478.6715,-589.7247 482.2654,-595.7317"/>
</g>
<!-- DIEZ
(0000380056)&#45;&gt;DOCE
(0000382568) -->
<g id="edge15" class="edge">
<title>DIEZ
(0000380056)&#45;&gt;DOCE
(0000382568)</title>
<path fill="none" stroke="#4bc9c8" d="M188.8321,-542.897C168.6212,-530.8055 143.5106,-515.7827 122.1404,-502.9976"/>
<polygon fill="#4bc9c8" stroke="#4bc9c8" points="123.9214,-499.9846 113.543,-497.854 120.3276,-505.9916 123.9214,-499.9846"/>
</g>
<!-- DIEZ
(0000380056)&#45;&gt;ONCE
(0000382569) -->
<g id="edge16" class="edge">
<title>DIEZ
(0000380056)&#45;&gt;ONCE
(0000382569)</title>
<path fill="none" stroke="#4bc9c8" d="M226.2965,-538.3858C226.2965,-530.3108 226.2965,-521.3075 226.2965,-512.6966"/>
<polygon fill="#4bc9c8" stroke="#4bc9c8" points="229.7966,-512.4766 226.2965,-502.4766 222.7966,-512.4767 229.7966,-512.4766"/>
</g>
<!-- TRECE
(0000386008)&#45;&gt;QUINCE
(0000383444) -->
<g id="edge49" class="edge">
<title>TRECE
(0000386008)&#45;&gt;QUINCE
(0000383444)</title>
<path fill="none" stroke="#4bc9c8" d="M188.9706,-363.6476C168.5527,-351.5131 143.08,-336.3745 121.4259,-323.5054"/>
<polygon fill="#4bc9c8" stroke="#4bc9c8" points="123.1009,-320.4294 112.7162,-318.3292 119.5246,-326.4469 123.1009,-320.4294"/>
</g>
<!-- TRECE
(0000386008)&#45;&gt;DIECISEIS
(0000383534) -->
<g id="edge17" class="edge">
<title>TRECE
(0000386008)&#45;&gt;DIECISEIS
(0000383534)</title>
<path fill="none" stroke="#4bc9c8" d="M225.9964,-358.9055C225.9065,-350.8306 225.8061,-341.8273 225.7102,-333.2164"/>
<polygon fill="#4bc9c8" stroke="#4bc9c8" points="229.2076,-332.9567 225.5963,-322.9964 222.208,-333.0348 229.2076,-332.9567"/>
</g>
<!-- DIECISIETE
(0000383776)&#45;&gt;DIECINUEVE
(0000384297) -->
<g id="edge19" class="edge">
<title>DIECISIETE
(0000383776)&#45;&gt;DIECINUEVE
(0000384297)</title>
<path fill="none" stroke="#4bc9c8" d="M185.229,-184.1673C164.4837,-172.0785 138.622,-157.0081 116.5916,-144.1704"/>
<polygon fill="#4bc9c8" stroke="#4bc9c8" points="118.1297,-141.0158 107.7274,-139.0049 114.6053,-147.0638 118.1297,-141.0158"/>
</g>
<!-- DIECISIETE
(0000383776)&#45;&gt;VEINTE
(0000383535) -->
<g id="edge44" class="edge">
<title>DIECISIETE
(0000383776)&#45;&gt;VEINTE
(0000383535)</title>
<path fill="none" stroke="#4bc9c8" d="M222.9964,-179.4253C222.9065,-171.3504 222.8061,-162.3471 222.7102,-153.7362"/>
<polygon fill="#4bc9c8" stroke="#4bc9c8" points="226.2076,-153.4765 222.5963,-143.5162 219.208,-153.5546 226.2076,-153.4765"/>
</g>
<!-- VEINTE 2
(0000374561)&#45;&gt;VEITIUNO 2
(0000373092) -->
<g id="edge20" class="edge">
<title>VEINTE 2
(0000374561)&#45;&gt;VEITIUNO 2
(0000373092)</title>
<path fill="none" stroke="#4bc9c8" d="M521.3018,-91.1343C512.5058,-81.3892 502.3456,-70.1327 493.0102,-59.7899"/>
<polygon fill="#4bc9c8" stroke="#4bc9c8" points="495.3668,-57.1772 486.0683,-52.099 490.1705,-61.8675 495.3668,-57.1772"/>
</g>
<!-- ONCE 2
(0000373023)&#45;&gt;CATORCE 2
(0000375536) -->
<g id="edge37" class="edge">
<title>ONCE 2
(0000373023)&#45;&gt;CATORCE 2
(0000375536)</title>
<path fill="none" stroke="#4bc9c8" d="M377.5965,-448.6456C377.6865,-440.5707 377.7868,-431.5674 377.8828,-422.9565"/>
<polygon fill="#4bc9c8" stroke="#4bc9c8" points="381.3849,-422.7749 377.9966,-412.7365 374.3853,-422.6969 381.3849,-422.7749"/>
</g>
<!-- TRECE 2
(0000373473) -->
<g id="node25" class="node">
<title>TRECE 2
(0000373473)</title>
<ellipse fill="none" stroke="#8caff3" cx="528.2965" cy="-385.8305" rx="65.5227" ry="26.7407"/>
<text text-anchor="middle" x="528.2965" y="-389.6305" font-family="Times,serif" font-size="14.00" fill="#dddddd">TRECE 2</text>
<text text-anchor="middle" x="528.2965" y="-374.6305" font-family="Times,serif" font-size="14.00" fill="#dddddd">(0000373473)</text>
</g>
<!-- ONCE 2
(0000373023)&#45;&gt;TRECE 2
(0000373473) -->
<g id="edge27" class="edge">
<title>ONCE 2
(0000373023)&#45;&gt;TRECE 2
(0000373473)</title>
<path fill="none" stroke="#4bc9c8" d="M414.6223,-453.3877C435.0402,-441.2532 460.5129,-426.1146 482.167,-413.2455"/>
<polygon fill="#4bc9c8" stroke="#4bc9c8" points="484.0684,-416.187 490.8767,-408.0693 480.4921,-410.1695 484.0684,-416.187"/>
</g>
<!-- TRECE 2
(0000373473)&#45;&gt;QUINCE 2
(0000373161) -->
<g id="edge46" class="edge">
<title>TRECE 2
(0000373473)&#45;&gt;QUINCE 2
(0000373161)</title>
<path fill="none" stroke="#4bc9c8" d="M491.0818,-363.4168C471.0949,-351.379 446.2841,-336.4359 425.118,-323.6879"/>
<polygon fill="#4bc9c8" stroke="#4bc9c8" points="426.6668,-320.535 416.2947,-318.3738 423.0552,-326.5314 426.6668,-320.535"/>
</g>
<!-- TRECE 2
(0000373473)&#45;&gt;DIECISEIS 2
(0000373634) -->
<g id="edge52" class="edge">
<title>TRECE 2
(0000373473)&#45;&gt;DIECISEIS 2
(0000373634)</title>
<path fill="none" stroke="#4bc9c8" d="M528.5965,-358.9055C528.6865,-350.8306 528.7868,-341.8273 528.8828,-333.2164"/>
<polygon fill="#4bc9c8" stroke="#4bc9c8" points="532.3849,-333.0348 528.9966,-322.9964 525.3853,-332.9567 532.3849,-333.0348"/>
</g>
<!-- VEINTE
(0000383535)&#45;&gt;VEINTIUNO
(0000384002) -->
<g id="edge29" class="edge">
<title>VEINTE
(0000383535)&#45;&gt;VEINTIUNO
(0000384002)</title>
<path fill="none" stroke="#4bc9c8" d="M200.7212,-91.1343C192.5381,-81.4718 183.0966,-70.3234 174.3988,-60.0531"/>
<polygon fill="#4bc9c8" stroke="#4bc9c8" points="177.0593,-57.7788 167.9257,-52.4096 171.7175,-62.3027 177.0593,-57.7788"/>
</g>
<!-- DOCE 2
(0000373083)&#45;&gt;CATORCE 2
(0000375536) -->
<g id="edge45" class="edge">
<title>DOCE 2
(0000373083)&#45;&gt;CATORCE 2
(0000375536)</title>
<path fill="none" stroke="#4bc9c8" d="M490.0818,-453.1569C470.0949,-441.1192 445.2841,-426.176 424.118,-413.428"/>
<polygon fill="#4bc9c8" stroke="#4bc9c8" points="425.6668,-410.2751 415.2947,-408.1139 422.0552,-416.2715 425.6668,-410.2751"/>
</g>
<!-- DOCE 2
(0000373083)&#45;&gt;TRECE 2
(0000373473) -->
<g id="edge31" class="edge">
<title>DOCE 2
(0000373083)&#45;&gt;TRECE 2
(0000373473)</title>
<path fill="none" stroke="#4bc9c8" d="M527.5965,-448.6456C527.6865,-440.5707 527.7868,-431.5674 527.8828,-422.9565"/>
<polygon fill="#4bc9c8" stroke="#4bc9c8" points="531.3849,-422.7749 527.9966,-412.7365 524.3853,-422.6969 531.3849,-422.7749"/>
</g>
<!-- NUEVE 2
(0000375225)&#45;&gt;ONCE 2
(0000373023) -->
<g id="edge51" class="edge">
<title>NUEVE 2
(0000375225)&#45;&gt;ONCE 2
(0000373023)</title>
<path fill="none" stroke="#4bc9c8" d="M489.0818,-542.897C469.0949,-530.8593 444.2841,-515.9161 423.118,-503.1682"/>
<polygon fill="#4bc9c8" stroke="#4bc9c8" points="424.6668,-500.0152 414.2947,-497.854 421.0552,-506.0116 424.6668,-500.0152"/>
</g>
<!-- NUEVE 2
(0000375225)&#45;&gt;DOCE 2
(0000373083) -->
<g id="edge50" class="edge">
<title>NUEVE 2
(0000375225)&#45;&gt;DOCE 2
(0000373083)</title>
<path fill="none" stroke="#4bc9c8" d="M526.5965,-538.3858C526.6865,-530.3108 526.7868,-521.3075 526.8828,-512.6966"/>
<polygon fill="#4bc9c8" stroke="#4bc9c8" points="530.3849,-512.515 526.9966,-502.4766 523.3853,-512.437 530.3849,-512.515"/>
</g>
</g>
</svg>
